<svg viewBox="0 0 800 200" xmlns="http://www.w3.org/2000/svg" width="800" height="200">
  <!-- 배경 -->
  <rect width="800" height="200" fill="#f8f9fa" opacity="0"/>

  <!-- 화살표 마커 정의 -->
  <defs>
    <marker id="arrowhead" markerWidth="10" markerHeight="10" refX="9" refY="3" orient="auto">
      <polygon points="0 0, 10 3, 0 6" fill="#999"/>
    </marker>
  </defs>

  <!-- 첫 번째 화살표 -->
  <line x1="170" y1="100" x2="200" y2="100" stroke="#999" stroke-width="2" marker-end="url(#arrowhead)"/>

  <!-- 기획 (파스텔 핑크) -->
  <g>
    <rect x="20" y="50" width="140" height="100" rx="15" ry="15" fill="#FFB3BA" stroke="#FF9DA3" stroke-width="2"/>
    <text x="90" y="105" font-family="Arial, sans-serif" font-size="16" font-weight="bold" text-anchor="middle" fill="#333">기획</text>
  </g>

  <!-- 두 번째 화살표 -->
  <line x1="370" y1="100" x2="400" y2="100" stroke="#999" stroke-width="2" marker-end="url(#arrowhead)"/>

  <!-- 제작 (파스텔 노랑) -->
  <g>
    <rect x="220" y="50" width="140" height="100" rx="15" ry="15" fill="#FFDFBA" stroke="#FFCF9E" stroke-width="2"/>
    <text x="290" y="105" font-family="Arial, sans-serif" font-size="16" font-weight="bold" text-anchor="middle" fill="#333">제작</text>
  </g>

  <!-- 세 번째 화살표 -->
  <line x1="570" y1="100" x2="600" y2="100" stroke="#999" stroke-width="2" marker-end="url(#arrowhead)"/>

  <!-- 검토 (파스텔 초록) -->
  <g>
    <rect x="420" y="50" width="140" height="100" rx="15" ry="15" fill="#BAFFC9" stroke="#A3FFB8" stroke-width="2"/>
    <text x="490" y="105" font-family="Arial, sans-serif" font-size="16" font-weight="bold" text-anchor="middle" fill="#333">검토</text>
  </g>

  <!-- 네 번째 화살표 (아래쪽으로 꺾임) -->
  <g>
    <!-- 수직 화살표 -->
    <line x1="290" y1="170" x2="290" y2="200" stroke="#999" stroke-width="2"/>
    <line x1="620" y1="150" x2="620" y2="170" stroke="#999" stroke-width="2"/>
    <line x1="290" y1="170" x2="620" y2="170" stroke="#999" stroke-width="2"/>
    <line x1="620" y1="170" x2="620" y2="200" stroke="#999" stroke-width="2" marker-end="url(#arrowhead)"/>
    <!-- 화살표 헤드 -->
    <polygon points="620,200 615,190 625,190" fill="#999"/>
  </g>

  <!-- 배포 (파스텔 파랑) - 아래쪽 -->
  <g>
    <rect x="560" y="50" width="140" height="100" rx="15" ry="15" fill="#BAE1FF" stroke="#A3D5FF" stroke-width="2"/>
    <text x="630" y="105" font-family="Arial, sans-serif" font-size="16" font-weight="bold" text-anchor="middle" fill="#333">배포</text>
  </g>

  <!-- 분석 (파스텔 보라) -->
  <g>
    <rect x="640" y="50" width="140" height="100" rx="15" ry="15" fill="#E0BBE4" stroke="#D0A3D4" stroke-width="2"/>
    <text x="710" y="105" font-family="Arial, sans-serif" font-size="16" font-weight="bold" text-anchor="middle" fill="#333">분석</text>
  </g>

  <!-- 배포와 분석 연결 화살표 -->
  <line x1="700" y1="100" x2="730" y2="100" stroke="#999" stroke-width="2" marker-end="url(#arrowhead)"/>
</svg>